Coordinates
version=1
nRows=6
nColumns=63
inDegrees=yes

Units are S.I. units (second, meters, Newtons, ...)
If the header above contains a line with 'inDegrees', this indicates whether rotational values are in degrees (yes) or radians (no).

endheader
time	pelvis_tilt	pelvis_list	pelvis_rotation	pelvis_tx	pelvis_ty	pelvis_tz	hip_flexion_r	hip_adduction_r	hip_rotation_r	knee_angle_r	knee_angle_r_beta	ankle_angle_r	subtalar_angle_r	mtp_angle_r	hip_flexion_l	hip_adduction_l	hip_rotation_l	knee_angle_l	knee_angle_l_beta	ankle_angle_l	subtalar_angle_l	mtp_angle_l	L5_S1_Flex_Ext	L5_S1_Lat_Bending	L5_S1_axial_rotation	L4_L5_Flex_Ext	L4_L5_Lat_Bending	L4_L5_axial_rotation	L3_L4_Flex_Ext	L3_L4_Lat_Bending	L3_L4_axial_rotation	L2_L3_Flex_Ext	L2_L3_Lat_Bending	L2_L3_axial_rotation	L1_L2_Flex_Ext	L1_L2_Lat_Bending	L1_L2_axial_rotation	L1_T12_Flex_Ext	L1_T12_Lat_Bending	L1_T12_axial_rotation	Abs_r3	Abs_r2	Abs_r1	Abs_t1	Abs_t2	neck_flexion	neck_bending	neck_rotation	arm_flex_r	arm_add_r	arm_rot_r	elbow_flex_r	pro_sup_r	wrist_flex_r	wrist_dev_r	arm_flex_l	arm_add_l	arm_rot_l	elbow_flex_l	pro_sup_l	wrist_flex_l	wrist_dev_l
      6.32203390	      3.29016027	      7.80602859	     83.74968964	      0.14542266	      1.04336758	      0.41709675	     -1.16734555	     -2.47131446	    -15.03946639	     29.04975316	      0.50701384	     51.03126050	     19.06074163	      0.00000000	     -4.48343871	      5.20324023	     -8.13043871	     19.25308588	      0.33602974	     49.34523854	     18.30118921	      0.00000000	     -0.08152929	      0.44483245	     -2.10761913	     -0.15140805	      0.59162715	     -2.23934532	     -0.13394448	      1.08156561	     -2.23934532	     -0.09317983	      1.08156561	     -1.84416673	     -0.07570810	      0.90710233	     -1.71244054	     -0.04658584	      0.68904546	     -1.58071434	     -0.58235559	      5.03203361	    -11.72194529	      0.00000000	      0.00000000	     -3.18828212	     -0.10959083	     -7.30124915	     15.03919462	    -22.87512058	     46.88267659	     52.93469984	     88.65895351	     -4.15881410	     11.82077480	      5.76191745	    -16.96553872	     13.27607719	     38.20513783	     75.00555878	     -3.46964177	      9.13117246
      6.33898305	      3.30434059	      7.73229577	     84.04523698	      0.14515606	      1.04315384	      0.41758023	     -1.12947699	     -2.41390659	    -15.46889594	     29.05972910	      0.50718795	     51.01494043	     19.05086643	      0.00000000	     -4.44177024	      5.08648404	     -8.07916735	     19.25883909	      0.33613015	     49.38375729	     18.29297252	      0.00000000	     -0.09471023	      0.45799621	     -2.15776812	     -0.17588638	      0.60913496	     -2.29262863	     -0.15559944	      1.11357199	     -2.29262863	     -0.10824433	      1.11357199	     -1.88804711	     -0.08794792	      0.93394587	     -1.75318660	     -0.05411743	      0.70943613	     -1.61832609	     -0.67650574	      5.18094474	    -12.00085896	      0.00000000	      0.00000000	     -2.81391140	     -0.29736383	     -6.79335508	     14.64878207	    -22.74574618	     45.10247883	     53.17191778	     88.31749356	     -4.52579252	     12.57802036	      5.64430768	    -16.93067869	     12.15287071	     38.85776136	     75.08999459	     -3.74279079	      9.00161026
      6.35593220	      3.33038432	      7.59670980	     84.31918672	      0.14500588	      1.04261864	      0.41770500	     -1.08033128	     -2.38842985	    -15.99660657	     29.09097768	      0.50773334	     51.08673772	     19.02023340	      0.00000000	     -4.38417803	      4.91282303	     -8.14384471	     19.25489646	      0.33606134	     49.45184263	     18.24802746	      0.00000000	     -0.09542514	      0.46774040	     -2.17078946	     -0.17721402	      0.62209474	     -2.30646380	     -0.15677395	      1.13726402	     -2.30646380	     -0.10906139	      1.13726402	     -1.89944078	     -0.08861178	      0.95381623	     -1.76376644	     -0.05452592	      0.72452989	     -1.62809210	     -0.68161220	      5.29117300	    -12.07327975	      0.00000000	      0.00000000	     -2.55195128	     -0.30135553	     -6.89496151	     14.09620531	    -22.70245952	     43.21954823	     53.54111319	     87.79806719	     -4.92092274	     13.16667327	      5.57272045	    -16.92022636	     11.41751722	     39.46578853	     75.30132921	     -3.92406663	      8.90037225
      6.37288136	      3.37056572	      7.41575909	     84.61534832	      0.14476640	      1.04198470	      0.41725517	     -1.03905345	     -2.36477241	    -16.56149654	     29.09334575	      0.50777467	     51.19925311	     18.96553680	      0.00000000	     -4.31410996	      4.72267713	     -8.18541695	     19.23760765	      0.33575959	     49.49704005	     18.17041140	      0.00000000	     -0.07673561	      0.47402409	     -2.13786677	     -0.14250570	      0.63045203	     -2.27148345	     -0.12606893	      1.15254216	     -2.27148345	     -0.08770113	      1.15254216	     -1.87063343	     -0.07125669	      0.96662991	     -1.73701675	     -0.04384673	      0.73426331	     -1.60340008	     -0.54811477	      5.36225526	    -11.89017364	      0.00000000	      0.00000000	     -2.69250620	     -0.13952679	     -7.68943901	     13.24722040	    -22.86939866	     41.24834386	     54.09627199	     87.28771949	     -5.27026232	     13.42260751	      5.62684735	    -16.81643048	     11.11340084	     39.84093437	     75.57155962	     -4.02691950	      8.95504531
      6.38983051	      3.29098107	      7.21889633	     84.94956211	      0.14459431	      1.04138470	      0.41679265	     -1.03991663	     -2.39549600	    -16.96399585	     28.91263049	      0.50462060	     51.29586129	     18.95041762	      0.00000000	     -4.14037135	      4.68797796	     -8.07345248	     19.26217163	      0.33618832	     49.52864289	     18.12430291	      0.00000000	     -0.04830959	      0.45705681	     -1.98537885	     -0.08971573	      0.60788555	     -2.10946503	     -0.07936782	      1.11128792	     -2.10946503	     -0.05521303	      1.11128792	     -1.73720649	     -0.04486028	      0.93203024	     -1.61312032	     -0.02760410	      0.70798099	     -1.48903414	     -0.34507055	      5.17031799	    -11.04208155	      0.00000000	      0.00000000	     -2.91165362	     -0.16841372	     -9.92352777	     11.54704132	    -23.08491140	     37.93867796	     54.90068208	     87.23383052	     -5.09576893	     13.44070603	      6.42115865	    -16.75495525	     12.23735831	     39.57899113	     75.75620937	     -4.11488225	      9.21048356
      6.40677966	      3.18556986	      7.11576931	     85.11002403	      0.14467028	      1.04096457	      0.41635449	     -1.04119420	     -2.44309822	    -17.01752502	     28.81648402	      0.50294253	     51.43868628	     18.97932237	      0.00000000	     -4.02846388	      4.76479064	     -7.85591320	     19.23510762	      0.33571596	     49.54517467	     18.21600483	      0.00000000	     -0.03457075	      0.43881333	     -1.85991915	     -0.06420135	      0.58362173	     -1.97616410	     -0.05679629	      1.06693074	     -1.97616410	     -0.03951092	      1.06693074	     -1.62742926	     -0.03210240	      0.89482815	     -1.51118431	     -0.01975373	      0.67972185	     -1.39493937	     -0.24693544	      4.96394418	    -10.34431236	      0.00000000	      0.00000000	     -3.28956294	     -0.20019280	    -11.15003185	     10.43882914	    -23.39883917	     36.08277942	     55.21206495	     87.03735974	     -5.18088911	     12.41041793	      6.88406770	    -16.70290696	     13.06248813	     39.36410712	     74.83457802	     -4.28531419	      9.12516590
